# xmcd CD database file
#
# Track frame offsets:
#	150
#	13667
#	30706
#	50463
#	60189
#	70440
#	82893
#	92560
#	107323
#	121792
#
# Disc length: 1791 seconds
#
# Revision: 0
# Processed by: cddbd v1.5.2PL0 Copyright (c) Steve Scherf et al.
# Submitted via: CDex 1.51
#
DISCID=6d06fd0a
DTITLE=Glen Campbell - Best Of Glen Campbell
DYEAR=2006
DGENRE=Country
TTITLE0=Rhinestone Cowboy
TTITLE1=Southern Nights
TTITLE2=Wichita Lineman-Glaveston-Country Boy (Live Medley)
TTITLE3=Dreams Of The Everyday
TTITLE4=Try A Little Kindness
TTITLE5=By The Time I Get To
TTITLE6=Gentle On My Mind
TTITLE7=I'm So Lonesome I Could Cry
TTITLE8=Crying
TTITLE9=You'll Never Walk Alone
EXTD=YEAR: 2006
EXTT0=
EXTT1=
EXTT2=
EXTT3=
EXTT4=
EXTT5=
EXTT6=
EXTT7=
EXTT8=
EXTT9=
PLAYORDER=
